<svg xmlns="http://www.w3.org/2000/svg" xmlns:xlink="http://www.w3.org/1999/xlink" width="500" zoomAndPan="magnify" viewBox="0 0 375 374.999991" height="500" preserveAspectRatio="xMidYMid meet" version="1.0"><defs><clipPath id="0c7a2dc04d"><path d="M 75 37.5 L 300 37.5 L 300 251 L 75 251 Z M 75 37.5 " clip-rule="nonzero"/></clipPath><clipPath id="0884521124"><path d="M 75 195 L 300 195 L 300 337.5 L 75 337.5 Z M 75 195 " clip-rule="nonzero"/></clipPath><clipPath id="7ec0fba90b"><path d="M 142.902344 98.304688 L 232.152344 98.304688 L 232.152344 187.554688 L 142.902344 187.554688 Z M 142.902344 98.304688 " clip-rule="nonzero"/></clipPath><clipPath id="8eb5a34940"><path d="M 168 123 L 232.152344 123 L 232.152344 187.554688 L 168 187.554688 Z M 168 123 " clip-rule="nonzero"/></clipPath></defs><g clip-path="url(#0c7a2dc04d)"><path fill="#f3f4f6" d="M 292.921875 41.195312 C 277.253906 56.421875 261.777344 71.824219 246.75 87.675781 C 243.804688 90.769531 241.792969 96.019531 241.703125 100.300781 C 241.234375 124.171875 241.566406 148.0625 241.382812 171.949219 C 241.371094 175.042969 240.953125 179.058594 239.066406 181.070312 C 238.839844 181.316406 238.609375 181.554688 238.382812 181.800781 C 222.226562 199.042969 205.675781 215.972656 187.5 234.816406 C 169.324219 215.972656 152.773438 199.042969 136.617188 181.800781 C 136.390625 181.554688 136.160156 181.316406 135.933594 181.070312 C 134.046875 179.058594 133.628906 175.042969 133.617188 171.949219 C 133.433594 148.0625 133.765625 124.171875 133.296875 100.300781 C 133.207031 96.011719 131.1875 90.769531 128.25 87.675781 C 113.210938 71.828125 97.726562 56.421875 82.058594 41.195312 C 80.425781 39.621094 77.46875 37.996094 75.136719 37.5 L 75.136719 141.8125 C 109.996094 176.660156 145.097656 211.289062 180.183594 245.933594 C 182.816406 248.53125 184.929688 249.980469 186.976562 250.296875 L 186.976562 250.355469 C 187.144531 250.363281 187.316406 250.355469 187.488281 250.351562 C 187.65625 250.355469 187.828125 250.363281 187.996094 250.355469 L 187.996094 250.296875 C 190.042969 249.980469 192.164062 248.53125 194.789062 245.933594 C 229.875 211.289062 264.976562 176.660156 299.835938 141.804688 L 299.835938 37.5 C 297.511719 37.996094 294.550781 39.621094 292.921875 41.195312 Z M 292.921875 41.195312 " fill-opacity="1" fill-rule="nonzero"/></g><g clip-path="url(#0884521124)"><path fill="#f3f4f6" d="M 194.882812 296.011719 C 192.804688 298.078125 190.65625 300.066406 187.488281 303.066406 C 184.324219 300.0625 182.167969 298.070312 180.089844 296.011719 C 147.601562 263.855469 115.171875 231.628906 82.464844 199.671875 C 80.734375 197.972656 77.6875 196.351562 75.128906 195.878906 L 75.128906 277.0625 L 133.152344 337.5 C 133.226562 337.03125 133.273438 336.574219 133.28125 336.144531 C 133.738281 317.613281 133.492188 299.046875 133.539062 280.511719 C 133.539062 278.105469 133.8125 275.691406 134.046875 271.96875 C 136.699219 274.273438 138.421875 275.617188 139.964844 277.136719 C 152.808594 289.800781 165.605469 302.503906 178.433594 315.183594 C 182.058594 318.777344 184.589844 320.789062 186.976562 321.191406 L 186.976562 321.265625 C 187.144531 321.273438 187.316406 321.265625 187.488281 321.253906 C 187.65625 321.265625 187.828125 321.265625 187.996094 321.265625 L 187.996094 321.191406 C 190.382812 320.789062 192.914062 318.777344 196.539062 315.183594 C 209.367188 302.507812 222.164062 289.800781 235.007812 277.136719 C 236.550781 275.617188 238.273438 274.269531 240.925781 271.96875 C 241.152344 275.691406 241.433594 278.105469 241.433594 280.511719 C 241.480469 299.046875 241.234375 317.613281 241.691406 336.144531 C 241.703125 336.578125 241.746094 337.035156 241.820312 337.5 L 299.835938 277.0625 L 299.835938 195.878906 C 297.28125 196.351562 294.230469 197.972656 292.5 199.671875 C 259.808594 231.621094 227.371094 263.855469 194.882812 296.011719 Z M 194.882812 296.011719 " fill-opacity="1" fill-rule="nonzero"/></g><g clip-path="url(#7ec0fba90b)"><path fill="#f3f4f6" d="M 231.777344 136.085938 C 224.144531 137.222656 219.613281 133.625 219.328125 126.371094 C 219.179688 122.648438 219.203125 118.914062 219.332031 115.195312 C 219.429688 112.460938 218.554688 111.15625 215.582031 111.171875 C 196.8125 111.246094 178.042969 111.242188 159.277344 111.175781 C 156.558594 111.164062 155.695312 112.253906 155.703125 114.878906 C 155.769531 133.644531 155.773438 152.414062 155.703125 171.183594 C 155.691406 173.933594 156.859375 174.792969 159.441406 174.761719 C 166.449219 174.671875 173.464844 174.730469 180.363281 174.730469 C 182.050781 182.078125 178.5 187.121094 171.621094 187.34375 C 165.417969 187.546875 159.199219 187.523438 152.992188 187.367188 C 146.53125 187.207031 143.015625 183.691406 142.988281 177.195312 C 142.902344 154.421875 142.902344 131.652344 142.980469 108.882812 C 143.003906 102.023438 146.675781 98.414062 153.570312 98.394531 C 176.066406 98.332031 198.5625 98.332031 221.058594 98.40625 C 228.433594 98.429688 231.972656 102.0625 232.03125 109.382812 C 232.097656 117.109375 232.070312 124.839844 232.050781 132.566406 C 232.050781 133.769531 231.867188 134.96875 231.777344 136.085938 Z M 231.777344 136.085938 " fill-opacity="1" fill-rule="nonzero"/></g><g clip-path="url(#8eb5a34940)"><path fill="#f3f4f6" d="M 194.308594 187.261719 C 193.367188 179.238281 196.929688 174.9375 204.230469 174.75 C 208.09375 174.652344 211.960938 174.671875 215.824219 174.75 C 218.257812 174.796875 219.363281 173.785156 219.324219 171.316406 C 219.148438 160.300781 220.378906 162.132812 210.546875 162.0625 C 200.199219 161.984375 189.847656 162.074219 179.5 162.027344 C 172.117188 161.992188 168.539062 158.472656 168.464844 151.160156 C 168.402344 145.230469 168.375 139.292969 168.515625 133.363281 C 168.636719 128.375 171.691406 124.335938 176.304688 124.171875 C 186.191406 123.816406 196.09375 124.0625 205.914062 124.0625 C 207.445312 131.464844 203.710938 136.304688 196.515625 136.507812 C 192.519531 136.621094 188.515625 136.550781 184.511719 136.523438 C 182.128906 136.503906 181.144531 137.519531 181.015625 140.003906 C 180.535156 149.351562 180.457031 149.347656 189.828125 149.355469 C 200.3125 149.371094 210.800781 149.324219 221.289062 149.417969 C 228.503906 149.480469 231.910156 152.890625 232.035156 160.121094 C 232.136719 165.917969 232.164062 171.714844 232.027344 177.507812 C 231.90625 182.835938 228.882812 186.984375 224.195312 187.152344 C 214.300781 187.503906 204.382812 187.261719 194.308594 187.261719 Z M 194.308594 187.261719 " fill-opacity="1" fill-rule="nonzero"/></g></svg>