<svg xmlns="http://www.w3.org/2000/svg" xmlns:xlink="http://www.w3.org/1999/xlink" width="240" zoomAndPan="magnify" viewBox="0 0 180 44.999999" height="60" preserveAspectRatio="xMidYMid meet" version="1.0"><defs><g/><clipPath id="71beaa928c"><path d="M 9 4.5 L 36 4.5 L 36 30.121094 L 9 30.121094 Z M 9 4.5 " clip-rule="nonzero"/></clipPath><clipPath id="34155ab650"><path d="M 9 23.398438 L 36 23.398438 L 36 40.5 L 9 40.5 Z M 9 23.398438 " clip-rule="nonzero"/></clipPath><clipPath id="3b7cd04331"><path d="M 17.148438 11.796875 L 27.859375 11.796875 L 27.859375 22.507812 L 17.148438 22.507812 Z M 17.148438 11.796875 " clip-rule="nonzero"/></clipPath><clipPath id="d260e9e0a9"><path d="M 20.160156 14.761719 L 27.859375 14.761719 L 27.859375 22.507812 L 20.160156 22.507812 Z M 20.160156 14.761719 " clip-rule="nonzero"/></clipPath></defs><g fill="#000000" fill-opacity="1"><g transform="translate(43.67109, 29.624998)"><g><path d="M 3.765625 0.125 C 3.421875 0.125 3.132812 0.0078125 2.90625 -0.21875 C 2.675781 -0.445312 2.5625 -0.726562 2.5625 -1.0625 L 2.5625 -17.390625 C 2.5625 -17.722656 2.675781 -18.007812 2.90625 -18.25 C 3.132812 -18.488281 3.421875 -18.609375 3.765625 -18.609375 C 4.097656 -18.609375 4.378906 -18.488281 4.609375 -18.25 C 4.847656 -18.007812 4.96875 -17.722656 4.96875 -17.390625 L 4.96875 -10.34375 L 15 -10.34375 L 15 -17.390625 C 15 -17.722656 15.113281 -18.007812 15.34375 -18.25 C 15.582031 -18.488281 15.867188 -18.609375 16.203125 -18.609375 C 16.535156 -18.609375 16.820312 -18.488281 17.0625 -18.25 C 17.300781 -18.007812 17.421875 -17.722656 17.421875 -17.390625 L 17.421875 -1.0625 C 17.421875 -0.726562 17.300781 -0.445312 17.0625 -0.21875 C 16.820312 0.0078125 16.535156 0.125 16.203125 0.125 C 15.867188 0.125 15.582031 0.0078125 15.34375 -0.21875 C 15.113281 -0.445312 15 -0.726562 15 -1.0625 L 15 -8.09375 L 4.96875 -8.09375 L 4.96875 -1.0625 C 4.96875 -0.726562 4.847656 -0.445312 4.609375 -0.21875 C 4.378906 0.0078125 4.097656 0.125 3.765625 0.125 Z M 3.765625 0.125 "/></g></g></g><g fill="#000000" fill-opacity="1"><g transform="translate(63.657966, 29.624998)"><g><path d="M 8.125 0.265625 C 5.96875 0.265625 4.285156 -0.347656 3.078125 -1.578125 C 1.867188 -2.804688 1.265625 -4.53125 1.265625 -6.75 C 1.265625 -8 1.492188 -9.15625 1.953125 -10.21875 C 2.410156 -11.28125 3.113281 -12.132812 4.0625 -12.78125 C 5.019531 -13.4375 6.195312 -13.765625 7.59375 -13.765625 C 8.90625 -13.765625 10.035156 -13.457031 10.984375 -12.84375 C 11.929688 -12.238281 12.648438 -11.425781 13.140625 -10.40625 C 13.640625 -9.394531 13.890625 -8.289062 13.890625 -7.09375 C 13.890625 -6.757812 13.78125 -6.476562 13.5625 -6.25 C 13.34375 -6.019531 13.046875 -5.90625 12.671875 -5.90625 L 3.703125 -5.90625 C 3.847656 -4.664062 4.304688 -3.703125 5.078125 -3.015625 C 5.859375 -2.328125 6.945312 -1.984375 8.34375 -1.984375 C 9.082031 -1.984375 9.726562 -2.050781 10.28125 -2.1875 C 10.832031 -2.332031 11.375 -2.539062 11.90625 -2.8125 C 12.050781 -2.875 12.210938 -2.90625 12.390625 -2.90625 C 12.671875 -2.90625 12.914062 -2.804688 13.125 -2.609375 C 13.34375 -2.421875 13.453125 -2.175781 13.453125 -1.875 C 13.453125 -1.488281 13.222656 -1.164062 12.765625 -0.90625 C 12.066406 -0.507812 11.382812 -0.210938 10.71875 -0.015625 C 10.050781 0.171875 9.1875 0.265625 8.125 0.265625 Z M 11.515625 -7.859375 C 11.460938 -8.722656 11.238281 -9.445312 10.84375 -10.03125 C 10.445312 -10.613281 9.957031 -11.039062 9.375 -11.3125 C 8.789062 -11.582031 8.195312 -11.71875 7.59375 -11.71875 C 7 -11.71875 6.410156 -11.582031 5.828125 -11.3125 C 5.242188 -11.039062 4.753906 -10.613281 4.359375 -10.03125 C 3.972656 -9.445312 3.753906 -8.722656 3.703125 -7.859375 Z M 11.515625 -7.859375 "/></g></g></g><g fill="#000000" fill-opacity="1"><g transform="translate(78.641509, 29.624998)"><g><path d="M 3.28125 0.125 C 2.945312 0.125 2.664062 0.0078125 2.4375 -0.21875 C 2.207031 -0.445312 2.09375 -0.726562 2.09375 -1.0625 L 2.09375 -12.40625 C 2.09375 -12.75 2.207031 -13.035156 2.4375 -13.265625 C 2.664062 -13.503906 2.945312 -13.625 3.28125 -13.625 C 3.613281 -13.625 3.898438 -13.503906 4.140625 -13.265625 C 4.378906 -13.035156 4.5 -12.75 4.5 -12.40625 L 4.5 -11.28125 C 5.738281 -12.9375 7.125 -13.765625 8.65625 -13.765625 L 8.78125 -13.765625 C 9.125 -13.765625 9.40625 -13.648438 9.625 -13.421875 C 9.84375 -13.191406 9.953125 -12.910156 9.953125 -12.578125 C 9.953125 -12.234375 9.835938 -11.957031 9.609375 -11.75 C 9.378906 -11.539062 9.085938 -11.4375 8.734375 -11.4375 L 8.609375 -11.4375 C 7.753906 -11.4375 6.972656 -11.226562 6.265625 -10.8125 C 5.566406 -10.394531 4.976562 -9.828125 4.5 -9.109375 L 4.5 -1.0625 C 4.5 -0.726562 4.378906 -0.445312 4.140625 -0.21875 C 3.898438 0.0078125 3.613281 0.125 3.28125 0.125 Z M 3.28125 0.125 "/></g></g></g><g fill="#000000" fill-opacity="1"><g transform="translate(88.78055, 29.624998)"><g><path d="M 3.28125 0.125 C 2.945312 0.125 2.664062 0.0078125 2.4375 -0.21875 C 2.207031 -0.445312 2.09375 -0.726562 2.09375 -1.0625 L 2.09375 -12.40625 C 2.09375 -12.75 2.207031 -13.035156 2.4375 -13.265625 C 2.664062 -13.503906 2.945312 -13.625 3.28125 -13.625 C 3.613281 -13.625 3.898438 -13.503906 4.140625 -13.265625 C 4.378906 -13.035156 4.5 -12.75 4.5 -12.40625 L 4.5 -11.328125 C 4.988281 -12.035156 5.582031 -12.617188 6.28125 -13.078125 C 6.976562 -13.535156 7.882812 -13.765625 9 -13.765625 C 9.988281 -13.765625 10.832031 -13.5 11.53125 -12.96875 C 12.238281 -12.4375 12.742188 -11.789062 13.046875 -11.03125 C 14.140625 -12.851562 15.765625 -13.765625 17.921875 -13.765625 C 18.910156 -13.765625 19.734375 -13.515625 20.390625 -13.015625 C 21.054688 -12.523438 21.546875 -11.890625 21.859375 -11.109375 C 22.179688 -10.335938 22.34375 -9.53125 22.34375 -8.6875 L 22.34375 -1.0625 C 22.34375 -0.726562 22.222656 -0.445312 21.984375 -0.21875 C 21.742188 0.0078125 21.457031 0.125 21.125 0.125 C 20.789062 0.125 20.507812 0.0078125 20.28125 -0.21875 C 20.050781 -0.445312 19.9375 -0.726562 19.9375 -1.0625 L 19.9375 -8.203125 C 19.9375 -9.347656 19.734375 -10.191406 19.328125 -10.734375 C 18.921875 -11.273438 18.222656 -11.546875 17.234375 -11.546875 C 16.328125 -11.546875 15.578125 -11.3125 14.984375 -10.84375 C 14.398438 -10.375 13.878906 -9.757812 13.421875 -9 L 13.421875 -1.0625 C 13.421875 -0.726562 13.300781 -0.445312 13.0625 -0.21875 C 12.820312 0.0078125 12.535156 0.125 12.203125 0.125 C 11.867188 0.125 11.585938 0.0078125 11.359375 -0.21875 C 11.128906 -0.445312 11.015625 -0.726562 11.015625 -1.0625 L 11.015625 -8.203125 C 11.015625 -9.347656 10.8125 -10.191406 10.40625 -10.734375 C 10 -11.273438 9.300781 -11.546875 8.3125 -11.546875 C 7.414062 -11.546875 6.671875 -11.3125 6.078125 -10.84375 C 5.484375 -10.375 4.957031 -9.757812 4.5 -9 L 4.5 -1.0625 C 4.5 -0.726562 4.378906 -0.445312 4.140625 -0.21875 C 3.898438 0.0078125 3.613281 0.125 3.28125 0.125 Z M 3.28125 0.125 "/></g></g></g><g fill="#000000" fill-opacity="1"><g transform="translate(113.082478, 29.624998)"><g><path d="M 8.125 0.265625 C 5.96875 0.265625 4.285156 -0.347656 3.078125 -1.578125 C 1.867188 -2.804688 1.265625 -4.53125 1.265625 -6.75 C 1.265625 -8 1.492188 -9.15625 1.953125 -10.21875 C 2.410156 -11.28125 3.113281 -12.132812 4.0625 -12.78125 C 5.019531 -13.4375 6.195312 -13.765625 7.59375 -13.765625 C 8.90625 -13.765625 10.035156 -13.457031 10.984375 -12.84375 C 11.929688 -12.238281 12.648438 -11.425781 13.140625 -10.40625 C 13.640625 -9.394531 13.890625 -8.289062 13.890625 -7.09375 C 13.890625 -6.757812 13.78125 -6.476562 13.5625 -6.25 C 13.34375 -6.019531 13.046875 -5.90625 12.671875 -5.90625 L 3.703125 -5.90625 C 3.847656 -4.664062 4.304688 -3.703125 5.078125 -3.015625 C 5.859375 -2.328125 6.945312 -1.984375 8.34375 -1.984375 C 9.082031 -1.984375 9.726562 -2.050781 10.28125 -2.1875 C 10.832031 -2.332031 11.375 -2.539062 11.90625 -2.8125 C 12.050781 -2.875 12.210938 -2.90625 12.390625 -2.90625 C 12.671875 -2.90625 12.914062 -2.804688 13.125 -2.609375 C 13.34375 -2.421875 13.453125 -2.175781 13.453125 -1.875 C 13.453125 -1.488281 13.222656 -1.164062 12.765625 -0.90625 C 12.066406 -0.507812 11.382812 -0.210938 10.71875 -0.015625 C 10.050781 0.171875 9.1875 0.265625 8.125 0.265625 Z M 11.515625 -7.859375 C 11.460938 -8.722656 11.238281 -9.445312 10.84375 -10.03125 C 10.445312 -10.613281 9.957031 -11.039062 9.375 -11.3125 C 8.789062 -11.582031 8.195312 -11.71875 7.59375 -11.71875 C 7 -11.71875 6.410156 -11.582031 5.828125 -11.3125 C 5.242188 -11.039062 4.753906 -10.613281 4.359375 -10.03125 C 3.972656 -9.445312 3.753906 -8.722656 3.703125 -7.859375 Z M 11.515625 -7.859375 "/></g></g></g><g fill="#000000" fill-opacity="1"><g transform="translate(128.066021, 29.624998)"><g><path d="M 6.453125 0.265625 C 4.691406 0.265625 3.085938 -0.128906 1.640625 -0.921875 C 1.335938 -1.140625 1.1875 -1.429688 1.1875 -1.796875 C 1.1875 -2.078125 1.28125 -2.320312 1.46875 -2.53125 C 1.664062 -2.75 1.914062 -2.859375 2.21875 -2.859375 C 2.382812 -2.859375 2.546875 -2.820312 2.703125 -2.75 C 3.265625 -2.5 3.828125 -2.300781 4.390625 -2.15625 C 4.953125 -2.019531 5.585938 -1.953125 6.296875 -1.953125 C 8.253906 -1.953125 9.234375 -2.582031 9.234375 -3.84375 C 9.234375 -4.25 9.007812 -4.554688 8.5625 -4.765625 C 8.113281 -4.972656 7.378906 -5.210938 6.359375 -5.484375 C 5.316406 -5.722656 4.453125 -5.972656 3.765625 -6.234375 C 3.085938 -6.503906 2.503906 -6.910156 2.015625 -7.453125 C 1.535156 -7.992188 1.296875 -8.703125 1.296875 -9.578125 C 1.296875 -10.816406 1.738281 -11.820312 2.625 -12.59375 C 3.519531 -13.375 4.796875 -13.765625 6.453125 -13.765625 C 7.816406 -13.765625 9.097656 -13.546875 10.296875 -13.109375 C 10.546875 -13.035156 10.734375 -12.898438 10.859375 -12.703125 C 10.992188 -12.503906 11.0625 -12.300781 11.0625 -12.09375 C 11.0625 -11.8125 10.957031 -11.5625 10.75 -11.34375 C 10.550781 -11.132812 10.300781 -11.03125 10 -11.03125 C 9.914062 -11.03125 9.800781 -11.050781 9.65625 -11.09375 C 8.632812 -11.40625 7.628906 -11.5625 6.640625 -11.5625 C 5.691406 -11.5625 4.945312 -11.390625 4.40625 -11.046875 C 3.863281 -10.703125 3.59375 -10.257812 3.59375 -9.71875 C 3.59375 -9.1875 3.835938 -8.796875 4.328125 -8.546875 C 4.828125 -8.296875 5.597656 -8.054688 6.640625 -7.828125 C 7.679688 -7.566406 8.523438 -7.304688 9.171875 -7.046875 C 9.828125 -6.796875 10.390625 -6.394531 10.859375 -5.84375 C 11.328125 -5.300781 11.5625 -4.570312 11.5625 -3.65625 C 11.5625 -2.519531 11.113281 -1.582031 10.21875 -0.84375 C 9.332031 -0.101562 8.078125 0.265625 6.453125 0.265625 Z M 6.453125 0.265625 "/></g></g></g><g fill="#000000" fill-opacity="1"><g transform="translate(140.77291, 29.624998)"><g><path d="M 10.71875 0.265625 C 8.957031 0.265625 7.375 -0.113281 5.96875 -0.875 C 4.5625 -1.644531 3.457031 -2.75 2.65625 -4.1875 C 1.851562 -5.632812 1.453125 -7.316406 1.453125 -9.234375 C 1.453125 -11.160156 1.851562 -12.84375 2.65625 -14.28125 C 3.457031 -15.71875 4.5625 -16.816406 5.96875 -17.578125 C 7.375 -18.347656 8.957031 -18.734375 10.71875 -18.734375 C 11.914062 -18.734375 12.988281 -18.59375 13.9375 -18.3125 C 14.882812 -18.03125 15.820312 -17.625 16.75 -17.09375 C 17.144531 -16.882812 17.34375 -16.550781 17.34375 -16.09375 C 17.34375 -15.832031 17.242188 -15.597656 17.046875 -15.390625 C 16.847656 -15.191406 16.59375 -15.09375 16.28125 -15.09375 C 16.101562 -15.09375 15.941406 -15.125 15.796875 -15.1875 C 15.023438 -15.59375 14.265625 -15.898438 13.515625 -16.109375 C 12.773438 -16.328125 11.921875 -16.4375 10.953125 -16.4375 C 9.441406 -16.4375 8.148438 -16.125 7.078125 -15.5 C 6.015625 -14.875 5.210938 -14.015625 4.671875 -12.921875 C 4.128906 -11.835938 3.859375 -10.609375 3.859375 -9.234375 C 3.859375 -7.859375 4.128906 -6.628906 4.671875 -5.546875 C 5.210938 -4.460938 6.015625 -3.601562 7.078125 -2.96875 C 8.148438 -2.34375 9.441406 -2.03125 10.953125 -2.03125 C 11.921875 -2.03125 12.773438 -2.132812 13.515625 -2.34375 C 14.265625 -2.5625 15.023438 -2.875 15.796875 -3.28125 C 15.941406 -3.351562 16.101562 -3.390625 16.28125 -3.390625 C 16.59375 -3.390625 16.847656 -3.289062 17.046875 -3.09375 C 17.242188 -2.90625 17.34375 -2.664062 17.34375 -2.375 C 17.34375 -1.914062 17.144531 -1.582031 16.75 -1.375 C 15.820312 -0.84375 14.882812 -0.4375 13.9375 -0.15625 C 12.988281 0.125 11.914062 0.265625 10.71875 0.265625 Z M 10.71875 0.265625 "/></g></g></g><g fill="#000000" fill-opacity="1"><g transform="translate(159.171426, 29.624998)"><g><path d="M 8.390625 0.265625 C 6.148438 0.265625 4.050781 -0.15625 2.09375 -1 C 1.875 -1.09375 1.691406 -1.238281 1.546875 -1.4375 C 1.410156 -1.644531 1.34375 -1.863281 1.34375 -2.09375 C 1.34375 -2.394531 1.441406 -2.65625 1.640625 -2.875 C 1.847656 -3.09375 2.113281 -3.203125 2.4375 -3.203125 C 2.613281 -3.203125 2.78125 -3.164062 2.9375 -3.09375 C 4.5625 -2.375 6.300781 -2.015625 8.15625 -2.015625 C 11.238281 -2.015625 12.78125 -3.03125 12.78125 -5.0625 C 12.78125 -5.582031 12.582031 -6.019531 12.1875 -6.375 C 11.789062 -6.726562 11.300781 -7.003906 10.71875 -7.203125 C 10.132812 -7.410156 9.304688 -7.65625 8.234375 -7.9375 C 6.804688 -8.3125 5.648438 -8.671875 4.765625 -9.015625 C 3.878906 -9.359375 3.117188 -9.875 2.484375 -10.5625 C 1.847656 -11.25 1.53125 -12.164062 1.53125 -13.3125 C 1.53125 -14.320312 1.796875 -15.234375 2.328125 -16.046875 C 2.859375 -16.867188 3.640625 -17.519531 4.671875 -18 C 5.703125 -18.488281 6.941406 -18.734375 8.390625 -18.734375 C 10.328125 -18.734375 12.082031 -18.441406 13.65625 -17.859375 C 14.15625 -17.691406 14.40625 -17.34375 14.40625 -16.8125 C 14.40625 -16.53125 14.304688 -16.273438 14.109375 -16.046875 C 13.910156 -15.816406 13.65625 -15.703125 13.34375 -15.703125 C 13.238281 -15.703125 13.097656 -15.734375 12.921875 -15.796875 C 11.546875 -16.273438 10.125 -16.515625 8.65625 -16.515625 C 7.257812 -16.515625 6.125 -16.25 5.25 -15.71875 C 4.375 -15.1875 3.9375 -14.445312 3.9375 -13.5 C 3.9375 -12.863281 4.144531 -12.347656 4.5625 -11.953125 C 4.976562 -11.554688 5.5 -11.242188 6.125 -11.015625 C 6.75 -10.796875 7.601562 -10.566406 8.6875 -10.328125 C 10.070312 -9.984375 11.191406 -9.644531 12.046875 -9.3125 C 12.910156 -8.976562 13.644531 -8.457031 14.25 -7.75 C 14.863281 -7.050781 15.171875 -6.097656 15.171875 -4.890625 C 15.171875 -3.910156 14.882812 -3.023438 14.3125 -2.234375 C 13.75 -1.453125 12.957031 -0.835938 11.9375 -0.390625 C 10.914062 0.046875 9.734375 0.265625 8.390625 0.265625 Z M 8.390625 0.265625 "/></g></g></g><g clip-path="url(#71beaa928c)"><path fill="#000000" d="M 35.152344 4.945312 C 33.269531 6.769531 31.414062 8.617188 29.609375 10.519531 C 29.257812 10.890625 29.015625 11.523438 29.003906 12.035156 C 28.949219 14.902344 28.988281 17.765625 28.964844 20.632812 C 28.964844 21.003906 28.914062 21.488281 28.6875 21.726562 C 28.660156 21.757812 28.632812 21.785156 28.605469 21.816406 C 26.667969 23.886719 24.679688 25.917969 22.5 28.179688 C 20.320312 25.917969 18.332031 23.886719 16.394531 21.816406 C 16.367188 21.785156 16.339844 21.757812 16.3125 21.726562 C 16.085938 21.488281 16.035156 21.003906 16.035156 20.632812 C 16.011719 17.765625 16.050781 14.902344 15.996094 12.035156 C 15.984375 11.519531 15.742188 10.890625 15.390625 10.519531 C 13.585938 8.621094 11.726562 6.769531 9.847656 4.945312 C 9.652344 4.753906 9.296875 4.558594 9.015625 4.5 L 9.015625 17.015625 C 13.199219 21.199219 17.410156 25.355469 21.621094 29.511719 C 21.9375 29.824219 22.191406 29.996094 22.4375 30.035156 L 22.4375 30.042969 C 22.457031 30.042969 22.476562 30.042969 22.5 30.042969 C 22.519531 30.042969 22.539062 30.042969 22.558594 30.042969 L 22.558594 30.035156 C 22.804688 29.996094 23.058594 29.824219 23.375 29.511719 C 27.585938 25.355469 31.796875 21.199219 35.980469 17.015625 L 35.980469 4.5 C 35.703125 4.558594 35.347656 4.753906 35.152344 4.945312 Z M 35.152344 4.945312 " fill-opacity="1" fill-rule="nonzero"/></g><g clip-path="url(#34155ab650)"><path fill="#000000" d="M 23.386719 35.519531 C 23.136719 35.769531 22.878906 36.007812 22.5 36.367188 C 22.117188 36.007812 21.859375 35.769531 21.609375 35.519531 C 17.710938 31.664062 13.820312 27.796875 9.894531 23.960938 C 9.6875 23.757812 9.324219 23.5625 9.015625 23.503906 L 9.015625 33.246094 L 15.976562 40.5 C 15.988281 40.445312 15.992188 40.390625 15.992188 40.335938 C 16.046875 38.113281 16.019531 35.886719 16.023438 33.660156 C 16.023438 33.371094 16.058594 33.082031 16.085938 32.636719 C 16.402344 32.914062 16.609375 33.074219 16.796875 33.257812 C 18.335938 34.777344 19.871094 36.300781 21.410156 37.820312 C 21.847656 38.253906 22.152344 38.496094 22.4375 38.542969 L 22.4375 38.550781 C 22.457031 38.554688 22.476562 38.550781 22.5 38.550781 C 22.519531 38.550781 22.539062 38.550781 22.558594 38.550781 L 22.558594 38.542969 C 22.847656 38.496094 23.148438 38.253906 23.585938 37.820312 C 25.125 36.300781 26.660156 34.777344 28.199219 33.257812 C 28.386719 33.074219 28.59375 32.914062 28.910156 32.636719 C 28.9375 33.082031 28.972656 33.371094 28.972656 33.660156 C 28.976562 35.886719 28.949219 38.113281 29.003906 40.335938 C 29.003906 40.390625 29.007812 40.445312 29.019531 40.5 L 35.980469 33.246094 L 35.980469 23.503906 C 35.671875 23.5625 35.308594 23.757812 35.101562 23.960938 C 31.175781 27.792969 27.285156 31.664062 23.386719 35.519531 Z M 23.386719 35.519531 " fill-opacity="1" fill-rule="nonzero"/></g><g clip-path="url(#3b7cd04331)"><path fill="#010101" d="M 27.8125 16.332031 C 26.898438 16.464844 26.355469 16.035156 26.320312 15.164062 C 26.300781 14.71875 26.304688 14.269531 26.320312 13.824219 C 26.332031 13.496094 26.226562 13.339844 25.871094 13.339844 C 23.617188 13.347656 21.363281 13.347656 19.113281 13.339844 C 18.785156 13.339844 18.683594 13.46875 18.683594 13.785156 C 18.691406 16.039062 18.691406 18.289062 18.683594 20.542969 C 18.683594 20.871094 18.824219 20.976562 19.132812 20.972656 C 19.972656 20.960938 20.816406 20.96875 21.644531 20.96875 C 21.847656 21.847656 21.421875 22.453125 20.59375 22.480469 C 19.851562 22.503906 19.105469 22.503906 18.359375 22.484375 C 17.582031 22.464844 17.160156 22.042969 17.160156 21.261719 C 17.148438 18.53125 17.148438 15.796875 17.15625 13.066406 C 17.160156 12.242188 17.601562 11.808594 18.429688 11.808594 C 21.128906 11.800781 23.828125 11.800781 26.527344 11.808594 C 27.410156 11.8125 27.835938 12.246094 27.84375 13.125 C 27.851562 14.054688 27.847656 14.980469 27.847656 15.90625 C 27.847656 16.050781 27.824219 16.195312 27.8125 16.332031 Z M 27.8125 16.332031 " fill-opacity="1" fill-rule="nonzero"/></g><g clip-path="url(#d260e9e0a9)"><path fill="#010101" d="M 23.316406 22.472656 C 23.203125 21.507812 23.632812 20.992188 24.507812 20.96875 C 24.972656 20.957031 25.433594 20.960938 25.898438 20.96875 C 26.191406 20.976562 26.324219 20.855469 26.320312 20.558594 C 26.296875 19.234375 26.445312 19.457031 25.265625 19.449219 C 24.023438 19.4375 22.78125 19.449219 21.539062 19.441406 C 20.652344 19.4375 20.226562 19.015625 20.214844 18.140625 C 20.207031 17.425781 20.203125 16.714844 20.222656 16.003906 C 20.238281 15.40625 20.601562 14.921875 21.15625 14.902344 C 22.34375 14.859375 23.53125 14.886719 24.710938 14.886719 C 24.894531 15.777344 24.445312 16.355469 23.582031 16.382812 C 23.101562 16.394531 22.621094 16.386719 22.140625 16.382812 C 21.855469 16.378906 21.738281 16.503906 21.722656 16.800781 C 21.664062 17.921875 21.65625 17.921875 22.78125 17.921875 C 24.039062 17.925781 25.296875 17.917969 26.554688 17.929688 C 27.421875 17.9375 27.828125 18.347656 27.84375 19.214844 C 27.855469 19.910156 27.859375 20.605469 27.84375 21.300781 C 27.828125 21.941406 27.464844 22.4375 26.902344 22.457031 C 25.714844 22.5 24.527344 22.472656 23.316406 22.472656 Z M 23.316406 22.472656 " fill-opacity="1" fill-rule="nonzero"/></g></svg>